<svg width="24" height="28" viewBox="0 0 24 28" fill="none" xmlns="http://www.w3.org/2000/svg">
    <path d="M7.23711 0.988282C7.50469 0.39961 8.09336 0.0250003 8.73555 0.0250003H15.2109C15.8531 0.0250003 16.4418 0.39961 16.7094 0.988282L17.1375 1.7375H22.275C23.1848 1.7375 23.9875 2.54023 23.9875 3.45C23.9875 4.41328 23.1848 5.1625 22.275 5.1625H1.725C0.761719 5.1625 0.0124998 4.41328 0.0124998 3.45C0.0124998 2.54023 0.761719 1.7375 1.725 1.7375H6.8625L7.23711 0.988282ZM1.67148 6.875H22.275V24C22.275 25.9266 20.723 27.425 18.85 27.425H5.09648C3.22344 27.425 1.67148 25.9266 1.67148 24V6.875ZM5.95273 11.1563V23.1438C5.95273 23.6254 6.38086 24 6.80898 24C7.29062 24 7.66523 23.6254 7.66523 23.1438V11.1563C7.66523 10.7281 7.29062 10.3 6.80898 10.3C6.38086 10.3 5.95273 10.7281 5.95273 11.1563ZM11.0902 11.1563V23.1438C11.0902 23.6254 11.5184 24 11.9465 24C12.4281 24 12.8562 23.6254 12.8562 23.1438V11.1563C12.8562 10.7281 12.4281 10.3 11.9465 10.3C11.5184 10.3 11.0902 10.7281 11.0902 11.1563ZM16.2812 11.1563V23.1438C16.2812 23.6254 16.6559 24 17.1375 24C17.5656 24 17.9937 23.6254 17.9937 23.1438V11.1563C17.9937 10.7281 17.5656 10.3 17.1375 10.3C16.6559 10.3 16.2812 10.7281 16.2812 11.1563Z" fill="#FBFCFA"/>
</svg>
