<svg width="29" height="30" viewBox="0 0 29 30" fill="none" xmlns="http://www.w3.org/2000/svg">
    <path d="M27.7539 2.94727C29 4.19336 29 6.17578 27.7539 7.42188L26.0547 9.12109L20.5039 3.57031L22.2031 1.87109C23.4492 0.625 25.4316 0.625 26.6777 1.87109L27.7539 2.94727ZM9.74219 14.332L19.2012 4.87305L24.752 10.4238L15.293 19.8828C14.9531 20.2227 14.5 20.5059 14.0469 20.6758L9.00586 22.3184C8.49609 22.4883 7.98633 22.375 7.64648 21.9785C7.25 21.6387 7.13672 21.0723 7.30664 20.6191L8.94922 15.5781C9.11914 15.125 9.40234 14.6719 9.74219 14.332ZM10.875 4.25C11.8379 4.25 12.6875 5.09961 12.6875 6.0625C12.6875 7.08203 11.8379 7.875 10.875 7.875H5.4375C4.41797 7.875 3.625 8.72461 3.625 9.6875V24.1875C3.625 25.207 4.41797 26 5.4375 26H19.9375C20.9004 26 21.75 25.207 21.75 24.1875V18.75C21.75 17.7871 22.543 16.9375 23.5625 16.9375C24.5254 16.9375 25.375 17.7871 25.375 18.75V24.1875C25.375 27.1895 22.9395 29.625 19.9375 29.625H5.4375C2.37891 29.625 0 27.1895 0 24.1875V9.6875C0 6.68555 2.37891 4.25 5.4375 4.25H10.875Z" fill="#FBFCFA"/>
</svg>
