<svg width="30" height="27" viewBox="0 0 30 27" fill="none" xmlns="http://www.w3.org/2000/svg">
    <path d="M28.125 0.625C29.1211 0.625 30 1.50391 30 2.5V23.125C30 25.2344 28.3008 26.875 26.25 26.875H3.75C1.64062 26.875 0 25.2344 0 23.125V6.25C0 5.25391 0.820312 4.375 1.875 4.375H3.75V22.1875C3.75 22.7148 4.16016 23.125 4.6875 23.125C5.15625 23.125 5.625 22.7148 5.625 22.1875V2.5C5.625 1.50391 6.44531 0.625 7.5 0.625H28.125ZM15.9375 23.125C16.4062 23.125 16.875 22.7148 16.875 22.1875C16.875 21.7188 16.4062 21.25 15.9375 21.25H10.3125C9.78516 21.25 9.375 21.7188 9.375 22.1875C9.375 22.7148 9.78516 23.125 10.3125 23.125H15.9375ZM15.9375 17.5C16.4062 17.5 16.875 17.0898 16.875 16.5625C16.875 16.0938 16.4062 15.625 15.9375 15.625H10.3125C9.78516 15.625 9.375 16.0938 9.375 16.5625C9.375 17.0898 9.78516 17.5 10.3125 17.5H15.9375ZM25.3125 23.125C25.7812 23.125 26.25 22.7148 26.25 22.1875C26.25 21.7188 25.7812 21.25 25.3125 21.25H19.6875C19.1602 21.25 18.75 21.7188 18.75 22.1875C18.75 22.7148 19.1602 23.125 19.6875 23.125H25.3125ZM25.3125 17.5C25.7812 17.5 26.25 17.0898 26.25 16.5625C26.25 16.0938 25.7812 15.625 25.3125 15.625H19.6875C19.1602 15.625 18.75 16.0938 18.75 16.5625C18.75 17.0898 19.1602 17.5 19.6875 17.5H25.3125ZM26.25 10.9375V5.3125C26.25 4.84375 25.7812 4.375 25.3125 4.375H10.3125C9.78516 4.375 9.375 4.84375 9.375 5.3125V10.9375C9.375 11.4648 9.78516 11.875 10.3125 11.875H25.3125C25.7812 11.875 26.25 11.4648 26.25 10.9375Z" fill="#0F1419"/>
    <path d="M3.75 4.375H4.75V3.375H3.75V4.375ZM28.125 1.625C28.5688 1.625 29 2.05619 29 2.5H31C31 0.951622 29.6734 -0.375 28.125 -0.375V1.625ZM29 2.5V23.125H31V2.5H29ZM29 23.125C29 24.6719 27.7587 25.875 26.25 25.875V27.875C28.8428 27.875 31 25.7968 31 23.125H29ZM26.25 25.875H3.75V27.875H26.25V25.875ZM3.75 25.875C2.19291 25.875 1 24.6821 1 23.125H-1C-1 25.7867 1.08834 27.875 3.75 27.875V25.875ZM1 23.125V6.25H-1V23.125H1ZM1 6.25C1 5.78581 1.39276 5.375 1.875 5.375V3.375C0.247862 3.375 -1 4.722 -1 6.25H1ZM1.875 5.375H3.75V3.375H1.875V5.375ZM2.75 4.375V22.1875H4.75V4.375H2.75ZM2.75 22.1875C2.75 23.2671 3.60787 24.125 4.6875 24.125V22.125C4.68634 22.125 4.69204 22.125 4.70156 22.1289C4.7106 22.1327 4.71991 22.1387 4.7281 22.1469C4.7363 22.1551 4.74232 22.1644 4.74607 22.1734C4.75001 22.183 4.75 22.1887 4.75 22.1875H2.75ZM4.6875 24.125C5.668 24.125 6.625 23.3068 6.625 22.1875H4.625C4.625 22.169 4.62947 22.1528 4.63432 22.1421C4.63853 22.1329 4.64164 22.1306 4.64013 22.132C4.63835 22.1337 4.63738 22.1337 4.6406 22.1323C4.64388 22.1309 4.65927 22.125 4.6875 22.125V24.125ZM6.625 22.1875V2.5H4.625V22.1875H6.625ZM6.625 2.5C6.625 2.03581 7.01776 1.625 7.5 1.625V-0.375C5.87286 -0.375 4.625 0.972005 4.625 2.5H6.625ZM7.5 1.625H28.125V-0.375H7.5V1.625ZM15.9375 24.125C16.918 24.125 17.875 23.3068 17.875 22.1875H15.875C15.875 22.169 15.8795 22.1528 15.8843 22.1421C15.8885 22.1329 15.8916 22.1306 15.8901 22.132C15.8884 22.1337 15.8874 22.1337 15.8906 22.1323C15.8939 22.1309 15.9093 22.125 15.9375 22.125V24.125ZM17.875 22.1875C17.875 21.6279 17.6053 21.152 17.2891 20.8359C16.973 20.5197 16.4971 20.25 15.9375 20.25V22.25C15.8882 22.25 15.8616 22.2381 15.8589 22.2367C15.8561 22.2355 15.8638 22.239 15.8749 22.2501C15.886 22.2612 15.8895 22.2689 15.8883 22.2661C15.8869 22.2634 15.875 22.2368 15.875 22.1875H17.875ZM15.9375 20.25H10.3125V22.25H15.9375V20.25ZM10.3125 20.25C9.19319 20.25 8.375 21.207 8.375 22.1875H10.375C10.375 22.2157 10.3691 22.2311 10.3677 22.2344C10.3663 22.2376 10.3663 22.2366 10.368 22.2349C10.3694 22.2334 10.3671 22.2365 10.3579 22.2407C10.3472 22.2455 10.331 22.25 10.3125 22.25V20.25ZM8.375 22.1875C8.375 23.2671 9.23287 24.125 10.3125 24.125V22.125C10.3113 22.125 10.317 22.125 10.3266 22.1289C10.3356 22.1327 10.3449 22.1387 10.3531 22.1469C10.3613 22.1551 10.3673 22.1644 10.3711 22.1734C10.375 22.183 10.375 22.1887 10.375 22.1875H8.375ZM10.3125 24.125H15.9375V22.125H10.3125V24.125ZM15.9375 18.5C16.918 18.5 17.875 17.6818 17.875 16.5625H15.875C15.875 16.544 15.8795 16.5278 15.8843 16.5171C15.8885 16.5079 15.8916 16.5056 15.8901 16.507C15.8884 16.5087 15.8874 16.5087 15.8906 16.5073C15.8939 16.5059 15.9093 16.5 15.9375 16.5V18.5ZM17.875 16.5625C17.875 16.0029 17.6053 15.527 17.2891 15.2109C16.973 14.8947 16.4971 14.625 15.9375 14.625V16.625C15.8882 16.625 15.8616 16.6131 15.8589 16.6117C15.8561 16.6105 15.8638 16.614 15.8749 16.6251C15.886 16.6362 15.8895 16.6439 15.8883 16.6411C15.8869 16.6384 15.875 16.6118 15.875 16.5625H17.875ZM15.9375 14.625H10.3125V16.625H15.9375V14.625ZM10.3125 14.625C9.19319 14.625 8.375 15.582 8.375 16.5625H10.375C10.375 16.5907 10.3691 16.6061 10.3677 16.6094C10.3663 16.6126 10.3663 16.6116 10.368 16.6099C10.3694 16.6084 10.3671 16.6115 10.3579 16.6157C10.3472 16.6205 10.331 16.625 10.3125 16.625V14.625ZM8.375 16.5625C8.375 17.6421 9.23287 18.5 10.3125 18.5V16.5C10.3113 16.5 10.317 16.5 10.3266 16.5039C10.3356 16.5077 10.3449 16.5137 10.3531 16.5219C10.3613 16.5301 10.3673 16.5394 10.3711 16.5484C10.375 16.558 10.375 16.5637 10.375 16.5625H8.375ZM10.3125 18.5H15.9375V16.5H10.3125V18.5ZM25.3125 24.125C26.293 24.125 27.25 23.3068 27.25 22.1875H25.25C25.25 22.169 25.2545 22.1528 25.2593 22.1421C25.2635 22.1329 25.2666 22.1306 25.2651 22.132C25.2634 22.1337 25.2624 22.1337 25.2656 22.1323C25.2689 22.1309 25.2843 22.125 25.3125 22.125V24.125ZM27.25 22.1875C27.25 21.6279 26.9803 21.152 26.6641 20.8359C26.348 20.5197 25.8721 20.25 25.3125 20.25V22.25C25.2632 22.25 25.2366 22.2381 25.2339 22.2367C25.2311 22.2355 25.2388 22.239 25.2499 22.2501C25.261 22.2612 25.2645 22.2689 25.2633 22.2661C25.2619 22.2634 25.25 22.2368 25.25 22.1875H27.25ZM25.3125 20.25H19.6875V22.25H25.3125V20.25ZM19.6875 20.25C18.5682 20.25 17.75 21.207 17.75 22.1875H19.75C19.75 22.2157 19.7441 22.2311 19.7427 22.2344C19.7413 22.2376 19.7413 22.2366 19.743 22.2349C19.7444 22.2334 19.7421 22.2365 19.7329 22.2407C19.7222 22.2455 19.706 22.25 19.6875 22.25V20.25ZM17.75 22.1875C17.75 23.2671 18.6079 24.125 19.6875 24.125V22.125C19.6863 22.125 19.692 22.125 19.7016 22.1289C19.7106 22.1327 19.7199 22.1387 19.7281 22.1469C19.7363 22.1551 19.7423 22.1644 19.7461 22.1734C19.75 22.183 19.75 22.1887 19.75 22.1875H17.75ZM19.6875 24.125H25.3125V22.125H19.6875V24.125ZM25.3125 18.5C26.293 18.5 27.25 17.6818 27.25 16.5625H25.25C25.25 16.544 25.2545 16.5278 25.2593 16.5171C25.2635 16.5079 25.2666 16.5056 25.2651 16.507C25.2634 16.5087 25.2624 16.5087 25.2656 16.5073C25.2689 16.5059 25.2843 16.5 25.3125 16.5V18.5ZM27.25 16.5625C27.25 16.0029 26.9803 15.527 26.6641 15.2109C26.348 14.8947 25.8721 14.625 25.3125 14.625V16.625C25.2632 16.625 25.2366 16.6131 25.2339 16.6117C25.2311 16.6105 25.2388 16.614 25.2499 16.6251C25.261 16.6362 25.2645 16.6439 25.2633 16.6411C25.2619 16.6384 25.25 16.6118 25.25 16.5625H27.25ZM25.3125 14.625H19.6875V16.625H25.3125V14.625ZM19.6875 14.625C18.5682 14.625 17.75 15.582 17.75 16.5625H19.75C19.75 16.5907 19.7441 16.6061 19.7427 16.6094C19.7413 16.6126 19.7413 16.6116 19.743 16.6099C19.7444 16.6084 19.7421 16.6115 19.7329 16.6157C19.7222 16.6205 19.706 16.625 19.6875 16.625V14.625ZM17.75 16.5625C17.75 17.6421 18.6079 18.5 19.6875 18.5V16.5C19.6863 16.5 19.692 16.5 19.7016 16.5039C19.7106 16.5077 19.7199 16.5137 19.7281 16.5219C19.7363 16.5301 19.7423 16.5394 19.7461 16.5484C19.75 16.558 19.75 16.5637 19.75 16.5625H17.75ZM19.6875 18.5H25.3125V16.5H19.6875V18.5ZM27.25 10.9375V5.3125H25.25V10.9375H27.25ZM27.25 5.3125C27.25 4.75289 26.9803 4.27699 26.6641 3.96086C26.348 3.64473 25.8721 3.375 25.3125 3.375V5.375C25.2632 5.375 25.2366 5.36305 25.2339 5.36175C25.2311 5.36047 25.2388 5.36397 25.2499 5.37508C25.261 5.38618 25.2645 5.39389 25.2633 5.39115C25.2619 5.38836 25.25 5.36178 25.25 5.3125H27.25ZM25.3125 3.375H10.3125V5.375H25.3125V3.375ZM10.3125 3.375C9.19319 3.375 8.375 4.332 8.375 5.3125H10.375C10.375 5.34073 10.3691 5.35612 10.3677 5.3594C10.3663 5.36262 10.3663 5.36165 10.368 5.35987C10.3694 5.35836 10.3671 5.36147 10.3579 5.36568C10.3472 5.37053 10.331 5.375 10.3125 5.375V3.375ZM8.375 5.3125V10.9375H10.375V5.3125H8.375ZM8.375 10.9375C8.375 12.0171 9.23287 12.875 10.3125 12.875V10.875C10.3113 10.875 10.317 10.875 10.3266 10.8789C10.3356 10.8827 10.3449 10.8887 10.3531 10.8969C10.3613 10.9051 10.3673 10.9144 10.3711 10.9234C10.375 10.933 10.375 10.9387 10.375 10.9375H8.375ZM10.3125 12.875H25.3125V10.875H10.3125V12.875ZM25.3125 12.875C26.293 12.875 27.25 12.0568 27.25 10.9375H25.25C25.25 10.919 25.2545 10.9028 25.2593 10.8921C25.2635 10.8829 25.2666 10.8806 25.2651 10.882C25.2634 10.8837 25.2624 10.8837 25.2656 10.8823C25.2689 10.8809 25.2843 10.875 25.3125 10.875V12.875Z" fill="#FBFCFA"/>
</svg>
