<svg width="259" height="123" viewBox="0 0 259 123" fill="none" xmlns="http://www.w3.org/2000/svg">
    <rect width="259" height="123" rx="30" fill="#0F1419"/>
    <path d="M63.38 38.352H66.932V81.888H63.38V38.352ZM49.796 49.92H80.9V53.472H49.796V49.92ZM68.18 51.072C71.06 59.424 76.628 68.4 82.1 72.864C81.284 73.536 80.036 74.784 79.412 75.744C73.796 70.608 68.372 61.104 65.252 51.936L68.18 51.072ZM62.324 51.12L65.396 52.08C62.276 61.584 56.708 70.848 50.804 75.984C50.132 75.12 48.932 73.824 48.068 73.2C53.876 68.688 59.444 59.712 62.324 51.12ZM49.22 38.016L52.772 39.12C49.412 47.52 44.036 55.68 38.276 61.008C37.892 60.144 36.74 58.224 36.116 57.36C41.396 52.752 46.292 45.552 49.22 38.016ZM43.94 50.784L47.492 47.232V47.28V81.744H43.94V50.784ZM96.548 69.216H100.1V76.608C100.1 77.808 100.532 78.048 103.172 78.048C104.324 78.048 110.372 78.048 112.004 78.048C114.116 78.048 114.452 77.424 114.644 73.008C115.46 73.632 116.9 74.112 117.908 74.304C117.428 79.968 116.372 81.312 112.292 81.312C111.188 81.312 103.94 81.312 102.884 81.312C97.796 81.312 96.548 80.352 96.548 76.608V69.216ZM100.34 67.392L102.692 65.424C105.716 66.864 109.268 69.264 110.948 71.232L108.452 73.392C106.82 71.472 103.364 68.928 100.34 67.392ZM116.612 70.56L119.54 68.88C122.996 71.568 126.692 75.504 128.18 78.48L124.964 80.304C123.62 77.328 120.068 73.344 116.612 70.56ZM90.548 69.216L93.764 70.272C92.66 74.352 90.836 78.192 86.948 80.352L83.972 78.288C87.572 76.416 89.636 73.056 90.548 69.216ZM87.092 54.192H103.748V65.184H87.092V62.352H100.58V57.072H87.092V54.192ZM84.788 46.944H105.716V49.92H84.788V46.944ZM109.7 49.008H123.668V51.648H109.7V49.008ZM109.7 55.728H123.716V58.32H109.7V55.728ZM102.452 38.4L104.9 40.896C100.1 42.336 92.468 43.104 86.324 43.344C86.18 42.576 85.748 41.424 85.412 40.656C91.316 40.32 98.612 39.552 102.452 38.4ZM114.836 37.296L118.772 37.872C117.86 40.08 116.804 42.384 115.94 43.872L112.724 43.296C113.492 41.568 114.404 39.024 114.836 37.296ZM87.092 54.192H90.26V63.984H87.092V54.192ZM93.764 41.28H97.028V55.632H93.764V41.28ZM110.852 45.072V62.688H122.612V45.072H110.852ZM107.492 42.096H126.164V65.664H107.492V42.096ZM140.996 58.944H164.804V61.92H140.996V58.944ZM140.084 67.152H165.812V70.224H140.084V67.152ZM156.068 59.904H159.332V80.976H156.068V59.904ZM146.228 60.048H149.348V68.784C149.348 71.712 148.196 78 142.772 81.648C142.292 80.976 141.188 79.968 140.372 79.488C145.22 76.512 146.228 71.424 146.228 68.784V60.048ZM135.044 46.416H148.532V49.008H135.044V46.416ZM157.172 46.416H170.756V49.008H157.172V46.416ZM169.364 39.744H172.916V77.184C172.916 79.344 172.436 80.496 170.996 81.12C169.556 81.744 167.156 81.792 163.508 81.792C163.364 80.832 162.884 79.152 162.356 78.144C164.996 78.24 167.588 78.24 168.356 78.192C169.124 78.192 169.364 77.904 169.364 77.184V39.744ZM135.332 39.744H150.74V55.92H135.332V53.184H147.332V42.528H135.332V39.744ZM171.092 39.744V42.528H158.42V53.232H171.092V55.968H154.964V39.744H171.092ZM133.172 39.744H136.724V81.888H133.172V39.744ZM201.188 76.464H217.94V79.728H201.188V76.464ZM199.316 62.4H219.812V81.696H216.26V65.712H202.772V81.888H199.316V62.4ZM196.052 54.336C201.716 54.048 210.644 53.568 219.188 52.992L219.14 56.208C211.028 56.832 202.436 57.504 196.484 57.888L196.052 54.336ZM211.94 46.608L214.82 45.12C218.036 49.104 221.348 54.48 222.644 58.032L219.476 59.76C218.324 56.16 215.108 50.688 211.94 46.608ZM205.412 37.68L209.348 38.496C207.38 44.352 204.644 51.696 202.388 56.256L199.316 55.392C201.476 50.736 204.068 43.056 205.412 37.68ZM177.908 47.616H193.748V51.024H177.908V47.616ZM185.204 37.68L188.66 38.064C186.692 47.664 183.62 60.624 181.364 68.64L178.388 67.008C180.548 59.712 183.524 46.8 185.204 37.68ZM180.308 65.568L182.324 63.024C187.7 66.048 194.084 70.656 196.964 74.208L194.756 77.136C191.924 73.536 185.684 68.688 180.308 65.568ZM192.356 47.616H192.98L193.604 47.52L195.764 47.952C194.468 66.528 189.284 76.704 180.452 81.984C179.924 81.12 178.964 79.824 178.196 79.104C186.164 74.88 191.204 64.656 192.356 48.384V47.616Z" fill="#FFC076"/>
</svg>
