<svg width="170" height="171" viewBox="0 0 170 171" fill="none" xmlns="http://www.w3.org/2000/svg">
<g clip-path="url(#clip0_326_165)">
<rect x="36" y="36" width="98" height="98.9608" fill="#FFC076"/>
<path d="M85 0.25C131.816 0.25 170 38.4336 170 85.25C170 132.398 131.816 170.25 85 170.25C37.8516 170.25 0 132.398 0 85.25C0 38.4336 37.8516 0.25 85 0.25ZM74.375 64C74.375 58.3555 68.7305 53.375 63.418 53.375C57.7734 53.375 53.125 58.3555 53.125 64V106.5C53.125 112.477 57.7734 117.125 63.75 117.125C69.3945 117.125 74.375 112.477 74.375 106.5V64ZM116.875 64C116.875 58.3555 111.23 53.375 105.918 53.375C100.273 53.375 95.625 58.3555 95.625 64V106.5C95.625 112.477 100.273 117.125 106.25 117.125C111.895 117.125 116.875 112.477 116.875 106.5V64Z" fill="#0F1419"/>
</g>
<defs>
<clipPath id="clip0_326_165">
<rect width="170" height="171" fill="white"/>
</clipPath>
</defs>
</svg>
