<svg width="48" height="48" viewBox="0 0 48 48" fill="none" xmlns="http://www.w3.org/2000/svg">
    <path d="M0 24C0 10.7812 10.6875 0 24 0C37.2188 0 48 10.7812 48 24C48 37.3125 37.2188 48 24 48C10.6875 48 0 37.3125 0 24ZM24 34.5C25.2188 34.5 26.25 33.5625 26.25 32.25V26.25H32.25C33.4688 26.25 34.5 25.3125 34.5 24C34.5 22.7812 33.4688 21.75 32.25 21.75H26.25V15.75C26.25 14.5312 25.2188 13.5 24 13.5C22.6875 13.5 21.75 14.5312 21.75 15.75V21.75H15.75C14.4375 21.75 13.5 22.7812 13.5 24C13.5 25.3125 14.4375 26.25 15.75 26.25H21.75V32.25C21.75 33.5625 22.6875 34.5 24 34.5Z" fill="#71FF6F"/>
</svg>
