<svg width="259" height="123" viewBox="0 0 259 123" fill="none" xmlns="http://www.w3.org/2000/svg">
    <rect width="259" height="123" rx="30" fill="#0F1419"/>
    <path d="M63.38 38.352H66.932V81.888H63.38V38.352ZM49.796 49.92H80.9V53.472H49.796V49.92ZM68.18 51.072C71.06 59.424 76.628 68.4 82.1 72.864C81.284 73.536 80.036 74.784 79.412 75.744C73.796 70.608 68.372 61.104 65.252 51.936L68.18 51.072ZM62.324 51.12L65.396 52.08C62.276 61.584 56.708 70.848 50.804 75.984C50.132 75.12 48.932 73.824 48.068 73.2C53.876 68.688 59.444 59.712 62.324 51.12ZM49.22 38.016L52.772 39.12C49.412 47.52 44.036 55.68 38.276 61.008C37.892 60.144 36.74 58.224 36.116 57.36C41.396 52.752 46.292 45.552 49.22 38.016ZM43.94 50.784L47.492 47.232V47.28V81.744H43.94V50.784ZM96.548 69.216H100.1V76.608C100.1 77.808 100.532 78.048 103.172 78.048C104.324 78.048 110.372 78.048 112.004 78.048C114.116 78.048 114.452 77.424 114.644 73.008C115.46 73.632 116.9 74.112 117.908 74.304C117.428 79.968 116.372 81.312 112.292 81.312C111.188 81.312 103.94 81.312 102.884 81.312C97.796 81.312 96.548 80.352 96.548 76.608V69.216ZM100.34 67.392L102.692 65.424C105.716 66.864 109.268 69.264 110.948 71.232L108.452 73.392C106.82 71.472 103.364 68.928 100.34 67.392ZM116.612 70.56L119.54 68.88C122.996 71.568 126.692 75.504 128.18 78.48L124.964 80.304C123.62 77.328 120.068 73.344 116.612 70.56ZM90.548 69.216L93.764 70.272C92.66 74.352 90.836 78.192 86.948 80.352L83.972 78.288C87.572 76.416 89.636 73.056 90.548 69.216ZM87.092 54.192H103.748V65.184H87.092V62.352H100.58V57.072H87.092V54.192ZM84.788 46.944H105.716V49.92H84.788V46.944ZM109.7 49.008H123.668V51.648H109.7V49.008ZM109.7 55.728H123.716V58.32H109.7V55.728ZM102.452 38.4L104.9 40.896C100.1 42.336 92.468 43.104 86.324 43.344C86.18 42.576 85.748 41.424 85.412 40.656C91.316 40.32 98.612 39.552 102.452 38.4ZM114.836 37.296L118.772 37.872C117.86 40.08 116.804 42.384 115.94 43.872L112.724 43.296C113.492 41.568 114.404 39.024 114.836 37.296ZM87.092 54.192H90.26V63.984H87.092V54.192ZM93.764 41.28H97.028V55.632H93.764V41.28ZM110.852 45.072V62.688H122.612V45.072H110.852ZM107.492 42.096H126.164V65.664H107.492V42.096ZM155.972 65.328L158.132 63.072C161.54 64.416 165.716 66.72 167.924 68.448L165.716 70.896C163.508 69.168 159.332 66.72 155.972 65.328ZM150.74 74.448L152.9 71.904C159.284 73.632 167.156 76.848 171.524 79.248L169.364 82.128C165.14 79.536 157.22 76.272 150.74 74.448ZM156.932 37.68L160.484 38.304C158.132 43.536 154.484 49.344 148.964 53.904C148.436 53.184 147.284 52.128 146.516 51.648C151.604 47.568 155.156 42.096 156.932 37.68ZM156.308 42.72H169.364V45.888H154.724L156.308 42.72ZM168.308 42.72H169.028L169.652 42.576L171.908 43.824C167.732 54.096 158.948 61.392 150.068 65.28C149.636 64.464 148.532 63.072 147.812 62.448C156.452 58.992 164.852 52.176 168.308 43.392V42.72ZM155.684 45.456C159.572 52.992 167.348 59.904 175.652 62.928C174.884 63.6 173.828 64.944 173.3 65.856C164.852 62.352 157.124 54.96 152.804 46.56L155.684 45.456ZM138.308 37.728L141.476 38.976C139.652 42.48 137.396 46.752 135.524 49.392L133.028 48.24C134.852 45.504 137.06 40.896 138.308 37.728ZM143.684 43.2L146.708 44.544C143.444 50.064 138.836 57.024 135.284 61.248L133.076 60C136.628 55.68 141.14 48.384 143.684 43.2ZM130.724 47.808L132.548 45.456C135.236 47.712 138.26 50.832 139.556 52.992L137.636 55.728C136.34 53.472 133.316 50.112 130.724 47.808ZM142.004 54.336L144.5 53.328C146.42 56.352 148.34 60.384 148.964 62.928L146.228 64.176C145.652 61.584 143.828 57.456 142.004 54.336ZM130.58 59.232C134.756 59.088 140.756 58.848 146.852 58.512L146.804 61.488C141.044 61.872 135.236 62.208 130.868 62.496L130.58 59.232ZM143.252 65.664L145.844 64.848C147.188 67.536 148.484 71.184 148.964 73.584L146.18 74.544C145.748 72.144 144.452 68.448 143.252 65.664ZM133.268 65.136L136.388 65.712C135.716 70.224 134.516 74.88 132.98 77.952C132.356 77.568 130.916 76.896 130.148 76.56C131.732 73.632 132.692 69.36 133.268 65.136ZM138.452 60.576H141.668V81.984H138.452V60.576ZM198.02 54.048H201.764V77.232C201.764 79.632 201.14 80.736 199.268 81.264C197.396 81.84 194.18 81.888 189.332 81.888C189.092 80.832 188.42 79.296 187.844 78.24C191.828 78.384 195.524 78.384 196.628 78.336C197.684 78.288 198.02 78 198.02 77.136V54.048ZM180.548 41.472H215.204V44.976H180.548V41.472ZM213.908 41.472H214.868L215.732 41.232L218.516 43.248C214.244 48.336 207.476 54 201.524 57.36C200.996 56.592 199.844 55.392 199.076 54.864C204.548 51.84 210.884 46.32 213.908 42.336V41.472Z" fill="#E8E8E8"/>
</svg>
