<svg width="20" height="20" viewBox="0 0 20 20" fill="none" xmlns="http://www.w3.org/2000/svg">
    <path d="M3.125 0.375C1.6082 0.375 0.375 1.6082 0.375 3.125V16.875C0.375 18.3918 1.6082 19.625 3.125 19.625H16.875C18.3918 19.625 19.625 18.3918 19.625 16.875V6.44648C19.625 5.71602 19.3371 5.01562 18.8215 4.5L15.5 1.17852C14.9844 0.662891 14.284 0.375 13.5535 0.375H3.125ZM3.125 4.5C3.125 3.73945 3.73945 3.125 4.5 3.125H12.75C13.5105 3.125 14.125 3.73945 14.125 4.5V7.25C14.125 8.01055 13.5105 8.625 12.75 8.625H4.5C3.73945 8.625 3.125 8.01055 3.125 7.25V4.5ZM10 11.375C10.7293 11.375 11.4288 11.6647 11.9445 12.1805C12.4603 12.6962 12.75 13.3957 12.75 14.125C12.75 14.8543 12.4603 15.5538 11.9445 16.0695C11.4288 16.5853 10.7293 16.875 10 16.875C9.27065 16.875 8.57118 16.5853 8.05546 16.0695C7.53973 15.5538 7.25 14.8543 7.25 14.125C7.25 13.3957 7.53973 12.6962 8.05546 12.1805C8.57118 11.6647 9.27065 11.375 10 11.375Z" fill="#FBFCFA"/>
</svg>
