<svg width="26" height="26" viewBox="0 0 26 26" fill="none" xmlns="http://www.w3.org/2000/svg">
    <path d="M24.4829 21.8125C25.186 22.5625 25.186 23.7344 24.4829 24.4844C23.7329 25.1875 22.561 25.1875 21.811 24.4844L16.2329 18.8594C14.311 20.125 11.9672 20.7812 9.43598 20.4531C5.12348 19.8438 1.65473 16.3281 1.09223 12.0625C0.295357 5.6875 5.68598 0.296875 12.061 1.09375C16.3266 1.65625 19.8422 5.125 20.4516 9.4375C20.7797 11.9688 20.1235 14.3125 18.8579 16.1875L24.4829 21.8125ZM4.74848 10.75C4.74848 14.0781 7.42036 16.75 10.7485 16.75C14.0297 16.75 16.7485 14.0781 16.7485 10.75C16.7485 7.46875 14.0297 4.75 10.7485 4.75C7.42036 4.75 4.74848 7.46875 4.74848 10.75Z" fill="#FBFCFA"/>
</svg>
