<svg width="259" height="123" viewBox="0 0 259 123" fill="none" xmlns="http://www.w3.org/2000/svg">
    <rect width="259" height="123" rx="30" fill="#0F1419"/>
    <path d="M89.204 75.312H123.092V78.864H89.204V75.312ZM103.94 37.968H107.636V77.328H103.94V37.968ZM87.428 61.92H91.076V81.888H87.428V61.92ZM121.172 61.92H124.868V81.744H121.172V61.92ZM89.3 42.288H92.852V55.344H119.204V42.288H122.948V58.848H89.3V42.288ZM155.108 49.008H172.004V52.368H155.108V49.008ZM170.996 49.008H174.356C174.356 49.008 174.356 50.304 174.356 50.784C173.828 70.992 173.396 77.712 171.908 79.728C171.044 80.928 170.132 81.36 168.74 81.504C167.444 81.648 165.284 81.648 163.124 81.504C163.028 80.496 162.692 79.056 162.116 78.096C164.372 78.336 166.388 78.336 167.204 78.336C168.02 78.336 168.452 78.192 168.884 77.568C169.988 76.128 170.516 69.312 170.996 49.824V49.008ZM160.82 38.112H164.18C164.084 57.6 164.084 73.44 154.052 82.032C153.524 81.216 152.276 80.064 151.46 79.536C160.964 71.664 160.772 56.736 160.82 38.112ZM132.644 69.072H154.004V71.808H132.644V69.072ZM131.924 62.688H154.388V65.472H131.924V62.688ZM131.108 41.856H155.348V44.64H131.108V41.856ZM141.428 50.544H144.788V77.568H141.428V50.544ZM136.532 37.728H139.892V48.336H136.532V37.728ZM146.324 37.728H149.684V48.336H146.324V37.728ZM130.868 77.232C136.676 76.704 145.796 75.696 154.484 74.688L154.532 77.616C146.18 78.672 137.348 79.68 131.348 80.4L130.868 77.232ZM136.052 52.032V57.024H150.404V52.032H136.052ZM132.836 49.392H153.716V59.712H132.836V49.392Z" fill="#71FF6F"/>
</svg>
