<svg width="259" height="123" viewBox="0 0 259 123" fill="none" xmlns="http://www.w3.org/2000/svg">
    <rect x="1.5" y="1.5" width="256" height="120" rx="28.5" fill="#FBFCFA" fill-opacity="0.2" stroke="#FBFCFA" stroke-width="3"/>
    <path d="M103.316 39.744H123.332V57.744H103.124V54.624H119.828V42.864H103.316V39.744ZM101.348 39.744H104.804V71.472H101.348V39.744ZM103.316 47.28H121.076V50.064H103.316V47.28ZM97.988 71.136C102.116 70.32 108.308 68.832 114.356 67.392L114.644 70.512C108.98 72 103.076 73.488 98.66 74.592L97.988 71.136ZM113.54 56.4C115.748 63.744 120.644 69.552 127.844 71.856C127.076 72.576 126.02 73.92 125.54 74.928C117.908 71.952 113.012 65.568 110.516 57.024L113.54 56.4ZM124.244 57.456L127.124 59.616C124.148 61.824 120.5 64.272 117.62 65.808L115.364 63.936C118.196 62.304 122.036 59.472 124.244 57.456ZM94.58 56.64V73.632H91.076V60H84.356V56.64H94.58ZM94.58 72.048C96.836 75.6 101.108 77.232 106.628 77.472C111.86 77.664 122.66 77.52 128.324 77.136C127.94 78 127.316 79.728 127.172 80.832C121.892 81.024 111.956 81.12 106.628 80.928C100.388 80.688 96.068 79.008 92.996 75.216C90.692 77.28 88.244 79.344 85.652 81.456L83.732 77.76C86.036 76.224 88.868 74.112 91.316 72.048H94.58ZM85.316 41.28L88.004 39.12C91.124 41.184 94.772 44.304 96.404 46.608L93.62 48.96C92.036 46.656 88.484 43.44 85.316 41.28ZM155.108 49.008H172.004V52.368H155.108V49.008ZM170.996 49.008H174.356C174.356 49.008 174.356 50.304 174.356 50.784C173.828 70.992 173.396 77.712 171.908 79.728C171.044 80.928 170.132 81.36 168.74 81.504C167.444 81.648 165.284 81.648 163.124 81.504C163.028 80.496 162.692 79.056 162.116 78.096C164.372 78.336 166.388 78.336 167.204 78.336C168.02 78.336 168.452 78.192 168.884 77.568C169.988 76.128 170.516 69.312 170.996 49.824V49.008ZM160.82 38.112H164.18C164.084 57.6 164.084 73.44 154.052 82.032C153.524 81.216 152.276 80.064 151.46 79.536C160.964 71.664 160.772 56.736 160.82 38.112ZM132.644 69.072H154.004V71.808H132.644V69.072ZM131.924 62.688H154.388V65.472H131.924V62.688ZM131.108 41.856H155.348V44.64H131.108V41.856ZM141.428 50.544H144.788V77.568H141.428V50.544ZM136.532 37.728H139.892V48.336H136.532V37.728ZM146.324 37.728H149.684V48.336H146.324V37.728ZM130.868 77.232C136.676 76.704 145.796 75.696 154.484 74.688L154.532 77.616C146.18 78.672 137.348 79.68 131.348 80.4L130.868 77.232ZM136.052 52.032V57.024H150.404V52.032H136.052ZM132.836 49.392H153.716V59.712H132.836V49.392Z" fill="#FF7D7D"/>
</svg>
