<svg width="152" height="45" viewBox="0 0 152 45" fill="none" xmlns="http://www.w3.org/2000/svg">
    <rect width="152" height="45" rx="3" fill="#3CB043"/>
    <path d="M67.3725 16.576H75.4305V17.8H66.7775L67.3725 16.576ZM69.4975 20.265H75.0395V21.438H69.4975V20.265ZM69.4805 24.005H75.2775V25.212H69.4805V24.005ZM68.8515 16.967H70.1605V29.36H68.8515V16.967ZM68.0185 13.924L69.2595 14.247C68.2905 16.95 66.8115 19.619 65.2475 21.37C65.0605 21.149 64.5505 20.69 64.2615 20.486C65.8085 18.905 67.1855 16.423 68.0185 13.924ZM63.9385 13.788L65.1625 14.179C64.0405 17.052 62.2895 19.959 60.4365 21.863C60.3175 21.557 59.9265 20.877 59.6885 20.571C61.3885 18.922 62.9695 16.372 63.9385 13.788ZM62.1195 18.174L63.3775 16.899L63.4115 16.916V29.343H62.1195V18.174ZM78.7965 20.095H83.0295V21.285H78.7965V20.095ZM82.5195 20.095H83.7605C83.7605 20.095 83.7605 20.469 83.7605 20.639C83.6755 24.481 83.5735 25.909 83.2165 26.385C82.9445 26.691 82.6725 26.81 82.1965 26.861C81.7545 26.912 80.9895 26.895 80.1565 26.861C80.1225 26.487 79.9865 25.994 79.7995 25.671C80.5645 25.739 81.3125 25.739 81.6015 25.739C81.8395 25.739 82.0095 25.722 82.1285 25.569C82.3835 25.263 82.4685 23.988 82.5195 20.316V20.095ZM87.3135 14.587L88.0785 13.788C89.1325 14.332 90.4755 15.148 91.1385 15.743L90.3395 16.61C89.6935 16.015 88.3845 15.148 87.3135 14.587ZM89.7445 19.194L91.0195 19.5C89.5745 23.937 87.0415 27.218 83.5565 29.275C83.3695 29.02 82.8935 28.493 82.6215 28.238C86.0725 26.402 88.4695 23.291 89.7445 19.194ZM78.8985 16.61H92.0565V17.868H78.8985V16.61ZM78.0825 16.61H79.4085V21.404C79.4085 23.818 79.1365 27.252 77.5895 29.479C77.3685 29.224 76.8245 28.782 76.5185 28.629C77.9295 26.538 78.0825 23.614 78.0825 21.387V16.61ZM85.1375 13.754H86.4635C86.4295 21.574 88.0955 27.949 90.3055 27.949C90.7815 27.949 91.0025 27.065 91.1045 24.804C91.3935 25.093 91.8695 25.382 92.2095 25.501C91.9715 28.408 91.4955 29.241 90.2035 29.241C86.7355 29.241 85.2055 21.897 85.1375 13.754Z" fill="#FBFCFA"/>
</svg>
